<svg width="48" height="48" viewBox="0 0 48 48" fill="none" xmlns="http://www.w3.org/2000/svg"><path d="M7.106 43.943a3.077 3.077 0 01-3.073-3.073V7.106a3.077 3.077 0 013.073-3.073H40.87a3.077 3.077 0 013.073 3.073V40.87a3.077 3.077 0 01-3.073 3.073H7.106z" fill="#fff"/><path d="M40.87 4.753a2.356 2.356 0 012.353 2.353V40.87a2.356 2.356 0 01-2.353 2.353H7.106a2.356 2.356 0 01-2.353-2.353V7.106a2.356 2.356 0 012.353-2.353H40.87zm0-1.44H7.106a3.793 3.793 0 00-3.793 3.793V40.87a3.793 3.793 0 003.793 3.793H40.87a3.793 3.793 0 003.793-3.793V7.106a3.793 3.793 0 00-3.793-3.793z" fill="#3C4043"/><path d="M8.122 32.084a.486.486 0 11.971 0 .486.486 0 01-.971 0zm1.618 0a.486.486 0 11.972 0 .486.486 0 01-.971 0zm1.62 0a.486.486 0 11.971 0 .486.486 0 01-.971 0zm1.62 0a.486.486 0 11.97 0 .486.486 0 01-.97 0zm1.618 0a.486.486 0 11.972 0 .486.486 0 01-.972 0zm1.62 0a.486.486 0 11.971 0 .486.486 0 01-.971 0zm1.619 0a.486.486 0 11.97 0 .486.486 0 01-.97 0zm1.619 0a.486.486 0 11.97 0 .486.486 0 01-.97 0zm1.619 0a.486.486 0 11.971 0 .486.486 0 01-.971 0zm1.619 0a.486.486 0 11.971 0 .486.486 0 01-.971 0zm1.619 0a.486.486 0 11.972 0 .486.486 0 01-.972 0zm1.619 0a.486.486 0 11.972 0 .486.486 0 01-.972 0zm1.62 0a.486.486 0 11.971 0 .486.486 0 01-.971 0zm1.618 0a.486.486 0 11.972 0 .486.486 0 01-.971 0zm1.62 0a.486.486 0 11.971 0 .486.486 0 01-.971 0zm1.619 0a.486.486 0 11.971 0 .486.486 0 01-.971 0zm1.619 0a.486.486 0 11.972 0 .486.486 0 01-.972 0zm1.619 0a.486.486 0 11.972 0 .486.486 0 01-.972 0zM8.122 33.703a.486.486 0 11.97 0 .486.486 0 01-.97 0zm1.618 0a.486.486 0 11.972 0 .486.486 0 01-.971 0zm1.62 0a.486.486 0 11.971 0 .486.486 0 01-.971 0zm1.62 0a.486.486 0 11.97 0 .486.486 0 01-.97 0zm1.618 0a.486.486 0 11.972 0 .486.486 0 01-.972 0zm1.62 0a.486.486 0 11.97 0 .486.486 0 01-.97 0zm1.619 0a.486.486 0 11.97 0 .486.486 0 01-.97 0zm1.619 0a.486.486 0 11.97 0 .486.486 0 01-.97 0zm1.619 0a.486.486 0 11.971 0 .486.486 0 01-.971 0zm1.619 0a.486.486 0 11.971 0 .486.486 0 01-.971 0zm1.619 0a.486.486 0 11.972 0 .486.486 0 01-.972 0zm1.619 0a.486.486 0 11.972 0 .486.486 0 01-.972 0zm1.62 0a.486.486 0 11.97 0 .486.486 0 01-.97 0zm1.618 0a.486.486 0 11.972 0 .486.486 0 01-.971 0zm1.62 0a.486.486 0 11.971 0 .486.486 0 01-.971 0zm1.619 0a.486.486 0 11.971 0 .486.486 0 01-.971 0zm1.619 0a.486.486 0 11.971 0 .486.486 0 01-.97 0zm1.619 0a.486.486 0 11.972 0 .486.486 0 01-.972 0zM8.122 35.322a.486.486 0 11.97 0 .486.486 0 01-.97 0zm1.618 0a.486.486 0 11.972 0 .486.486 0 01-.971 0zm1.62 0a.486.486 0 11.971 0 .486.486 0 01-.971 0zm1.62 0a.486.486 0 11.97 0 .486.486 0 01-.97 0zm1.618 0a.486.486 0 11.972 0 .486.486 0 01-.972 0zm1.62 0a.486.486 0 11.97 0 .486.486 0 01-.97 0zm1.619 0a.486.486 0 11.97 0 .486.486 0 01-.97 0zm1.619 0a.486.486 0 11.97 0 .486.486 0 01-.97 0zm1.619 0a.486.486 0 11.971 0 .486.486 0 01-.971 0zm1.619 0a.486.486 0 11.971 0 .486.486 0 01-.971 0zm1.619 0a.486.486 0 11.972 0 .486.486 0 01-.972 0zm1.619 0a.486.486 0 11.972 0 .486.486 0 01-.972 0zm1.62 0a.486.486 0 11.97 0 .486.486 0 01-.97 0zm1.618 0a.486.486 0 11.972 0 .486.486 0 01-.971 0zm1.62 0a.486.486 0 11.971 0 .486.486 0 01-.971 0zm1.619 0a.486.486 0 11.971 0 .486.486 0 01-.971 0zm1.619 0a.486.486 0 11.971 0 .486.486 0 01-.97 0zm1.619 0a.486.486 0 11.972 0 .486.486 0 01-.972 0zM8.122 36.941a.486.486 0 11.971 0 .486.486 0 01-.971 0zm1.618 0a.486.486 0 11.972 0 .486.486 0 01-.971 0zm1.62 0a.486.486 0 11.971 0 .486.486 0 01-.971 0zm1.62 0a.486.486 0 11.97 0 .486.486 0 01-.97 0zm1.618 0a.486.486 0 11.972 0 .486.486 0 01-.972 0zm1.62 0a.486.486 0 11.971 0 .486.486 0 01-.971 0zm1.619 0a.486.486 0 11.97 0 .486.486 0 01-.97 0zm1.619 0a.486.486 0 11.97 0 .486.486 0 01-.97 0zm1.619 0a.486.486 0 11.971 0 .486.486 0 01-.971 0zm1.619 0a.486.486 0 11.971 0 .486.486 0 01-.971 0zm1.619 0a.486.486 0 11.972 0 .486.486 0 01-.972 0zm1.619 0a.486.486 0 11.972 0 .486.486 0 01-.972 0zm1.62 0a.486.486 0 11.971 0 .486.486 0 01-.971 0zm1.618 0a.486.486 0 11.972 0 .486.486 0 01-.971 0zm1.62 0a.486.486 0 11.971 0 .486.486 0 01-.971 0zm1.619 0a.486.486 0 11.971 0 .486.486 0 01-.971 0zm1.619 0a.486.486 0 11.972 0 .486.486 0 01-.972 0zm1.619 0a.486.486 0 11.972 0 .486.486 0 01-.972 0zM8.122 17.511a.486.486 0 11.97 0 .486.486 0 01-.97 0zm1.618 0a.486.486 0 11.972 0 .486.486 0 01-.971 0zM8.122 19.13a.486.486 0 11.971 0 .486.486 0 01-.971 0zm1.618 0a.486.486 0 11.972 0 .486.486 0 01-.971 0zm-1.618 1.62a.486.486 0 11.971 0 .486.486 0 01-.971 0zm1.618 0a.486.486 0 11.972 0 .486.486 0 01-.971 0zm-1.618 1.619a.486.486 0 11.97 0 .486.486 0 01-.97 0zm1.618 0a.486.486 0 11.972 0 .486.486 0 01-.971 0zm-1.618 1.619a.486.486 0 11.971 0 .486.486 0 01-.971 0zm1.618 0a.486.486 0 11.972 0 .486.486 0 01-.971 0zm-1.618 1.619a.486.486 0 11.97 0 .486.486 0 01-.97 0zm1.618 0a.486.486 0 11.972 0 .486.486 0 01-.971 0zm-1.618 1.619a.486.486 0 11.971 0 .486.486 0 01-.971 0zm1.618 0a.486.486 0 11.972 0 .486.486 0 01-.971 0zm-1.618 1.619a.486.486 0 11.97 0 .486.486 0 01-.97 0zm1.618 0a.486.486 0 11.972 0 .486.486 0 01-.971 0zm-1.618 1.62a.486.486 0 11.971 0 .486.486 0 01-.971 0zm1.618 0a.486.486 0 11.972 0 .486.486 0 01-.971 0zm27.524-16.192a.486.486 0 11.971 0 .486.486 0 01-.971 0zm1.619 0a.486.486 0 11.971 0 .486.486 0 01-.971 0zm-1.619 1.619a.486.486 0 11.97 0 .486.486 0 01-.97 0zm1.619 0a.486.486 0 11.971 0 .486.486 0 01-.971 0zm-1.617 16.192a.486.486 0 11.971 0 .486.486 0 01-.971 0zm1.619 0a.486.486 0 11.971 0 .486.486 0 01-.971 0zm-1.619 1.619a.486.486 0 11.97 0 .486.486 0 01-.97 0zm1.619 0a.486.486 0 11.97 0 .486.486 0 01-.97 0zm-1.619 1.619a.486.486 0 11.97 0 .486.486 0 01-.97 0zm1.619 0a.486.486 0 11.97 0 .486.486 0 01-.97 0zm-1.619 1.619a.486.486 0 11.971 0 .486.486 0 01-.971 0zm1.619 0a.486.486 0 11.971 0 .486.486 0 01-.971 0zm-1.619-19.43a.486.486 0 11.97 0 .486.486 0 01-.97 0zm1.619 0a.486.486 0 11.97 0 .486.486 0 01-.97 0zm-1.619 1.619a.486.486 0 11.971 0 .486.486 0 01-.971 0zm1.619 0a.486.486 0 11.971 0 .486.486 0 01-.971 0zm-1.619 1.62a.486.486 0 11.971 0 .486.486 0 01-.971 0zm1.619 0a.486.486 0 11.971 0 .486.486 0 01-.971 0zm-1.619 1.619a.486.486 0 11.97 0 .486.486 0 01-.97 0zm1.619 0a.486.486 0 11.97 0 .486.486 0 01-.97 0zm-1.619 1.619a.486.486 0 11.971 0 .486.486 0 01-.971 0zm1.619 0a.486.486 0 11.971 0 .486.486 0 01-.971 0zm-1.619 1.619a.486.486 0 11.97 0 .486.486 0 01-.97 0zm1.619 0a.486.486 0 11.97 0 .486.486 0 01-.97 0zm-1.619 1.619a.486.486 0 11.971 0 .486.486 0 01-.971 0zm1.619 0a.486.486 0 11.971 0 .486.486 0 01-.971 0zm-1.619 1.619a.486.486 0 11.97 0 .486.486 0 01-.97 0zm1.619 0a.486.486 0 11.97 0 .486.486 0 01-.97 0zm-1.619 1.62a.486.486 0 11.971 0 .486.486 0 01-.971 0zm1.619 0a.486.486 0 11.971 0 .486.486 0 01-.971 0zm-1.621-19.43a.486.486 0 11.97 0 .486.486 0 01-.97 0zm1.619 0a.486.486 0 11.971 0 .486.486 0 01-.971 0zm-1.619 1.619a.486.486 0 11.97 0 .486.486 0 01-.97 0zm1.619 0a.486.486 0 11.971 0 .486.486 0 01-.971 0zM8.12 11.035a.486.486 0 11.971 0 .486.486 0 01-.971 0zm1.619 0a.486.486 0 11.971 0 .486.486 0 01-.971 0zm1.619 0a.486.486 0 11.972 0 .486.486 0 01-.972 0zm1.619 0a.486.486 0 11.972 0 .486.486 0 01-.972 0zm1.62 0a.486.486 0 11.97 0 .486.486 0 01-.97 0zm1.619 0a.486.486 0 11.97 0 .486.486 0 01-.97 0zm1.619 0a.486.486 0 11.971 0 .486.486 0 01-.971 0zm1.619 0a.486.486 0 11.971 0 .486.486 0 01-.971 0zm1.619 0a.486.486 0 11.971 0 .486.486 0 01-.971 0zm1.619 0a.486.486 0 11.972 0 .486.486 0 01-.972 0zm1.619 0a.486.486 0 11.972 0 .486.486 0 01-.972 0zm1.619 0a.486.486 0 11.972 0 .486.486 0 01-.971 0zm1.62 0a.486.486 0 11.97 0 .486.486 0 01-.97 0zm1.619 0a.486.486 0 11.971 0 .486.486 0 01-.971 0zm1.619 0a.486.486 0 11.971 0 .486.486 0 01-.971 0zm1.619 0a.486.486 0 11.972 0 .486.486 0 01-.972 0zm1.619 0a.486.486 0 11.972 0 .486.486 0 01-.972 0zm1.619 0a.486.486 0 11.972 0 .486.486 0 01-.971 0zM8.12 12.654a.486.486 0 11.971 0 .486.486 0 01-.971 0zm1.619 0a.486.486 0 11.971 0 .486.486 0 01-.971 0zm1.619 0a.486.486 0 11.972 0 .486.486 0 01-.972 0zm1.619 0a.486.486 0 11.972 0 .486.486 0 01-.972 0zm1.62 0a.486.486 0 11.97 0 .486.486 0 01-.97 0zm1.619 0a.486.486 0 11.97 0 .486.486 0 01-.97 0zm1.619 0a.486.486 0 11.971 0 .486.486 0 01-.971 0zm1.619 0a.486.486 0 11.971 0 .486.486 0 01-.971 0zm1.619 0a.486.486 0 11.971 0 .486.486 0 01-.971 0zm1.619 0a.486.486 0 11.972 0 .486.486 0 01-.972 0zm1.619 0a.486.486 0 11.972 0 .486.486 0 01-.972 0zm1.619 0a.486.486 0 11.972 0 .486.486 0 01-.971 0zm1.62 0a.486.486 0 11.97 0 .486.486 0 01-.97 0zm1.619 0a.486.486 0 11.971 0 .486.486 0 01-.971 0zm1.619 0a.486.486 0 11.971 0 .486.486 0 01-.971 0zm1.619 0a.486.486 0 11.972 0 .486.486 0 01-.972 0zm1.619 0a.486.486 0 11.972 0 .486.486 0 01-.972 0zm1.619 0a.486.486 0 11.972 0 .486.486 0 01-.971 0zM8.12 14.273a.486.486 0 11.971 0 .486.486 0 01-.971 0zm1.619 0a.486.486 0 11.971 0 .486.486 0 01-.971 0zm1.619 0a.486.486 0 11.972 0 .486.486 0 01-.972 0zm1.619 0a.486.486 0 11.972 0 .486.486 0 01-.972 0zm1.62 0a.486.486 0 11.971 0 .486.486 0 01-.971 0zm1.619 0a.486.486 0 11.971 0 .486.486 0 01-.971 0zm1.619 0a.486.486 0 11.971 0 .486.486 0 01-.971 0zm1.619 0a.486.486 0 11.971 0 .486.486 0 01-.971 0zm1.619 0a.486.486 0 11.971 0 .486.486 0 01-.971 0zm1.619 0a.486.486 0 11.972 0 .486.486 0 01-.972 0zm1.619 0a.486.486 0 11.972 0 .486.486 0 01-.972 0zm1.619 0a.486.486 0 11.972 0 .486.486 0 01-.971 0zm1.62 0a.486.486 0 11.971 0 .486.486 0 01-.971 0zm1.619 0a.486.486 0 11.971 0 .486.486 0 01-.971 0zm1.619 0a.486.486 0 11.971 0 .486.486 0 01-.971 0zm1.619 0a.486.486 0 11.972 0 .486.486 0 01-.972 0zm1.619 0a.486.486 0 11.972 0 .486.486 0 01-.972 0zm1.619 0a.486.486 0 11.972 0 .486.486 0 01-.971 0zM8.12 15.892a.486.486 0 11.971 0 .486.486 0 01-.971 0zm1.619 0a.486.486 0 11.971 0 .486.486 0 01-.971 0zm1.619 0a.486.486 0 11.972 0 .486.486 0 01-.972 0zm1.619 0a.486.486 0 11.972 0 .486.486 0 01-.972 0zm1.62 0a.486.486 0 11.97 0 .486.486 0 01-.97 0zm1.619 0a.486.486 0 11.97 0 .486.486 0 01-.97 0zm1.619 0a.486.486 0 11.971 0 .486.486 0 01-.971 0zm1.619 0a.486.486 0 11.971 0 .486.486 0 01-.971 0zm1.619 0a.486.486 0 11.971 0 .486.486 0 01-.971 0zm1.619 0a.486.486 0 11.972 0 .486.486 0 01-.972 0zm1.619 0a.486.486 0 11.972 0 .486.486 0 01-.972 0zm1.619 0a.486.486 0 11.972 0 .486.486 0 01-.971 0zm1.62 0a.486.486 0 11.97 0 .486.486 0 01-.97 0zm1.619 0a.486.486 0 11.971 0 .486.486 0 01-.971 0zm1.619 0a.486.486 0 11.971 0 .486.486 0 01-.971 0zm1.619 0a.486.486 0 11.972 0 .486.486 0 01-.972 0zm1.619 0a.486.486 0 11.972 0 .486.486 0 01-.972 0zm1.619 0a.486.486 0 11.972 0 .486.486 0 01-.971 0zm1.619 22.61a.486.486 0 11.971 0 .486.486 0 01-.971 0zm1.619 0a.486.486 0 11.971 0 .486.486 0 01-.971 0zM37.264 9.474a.486.486 0 11.971 0 .486.486 0 01-.971 0zm1.619 0a.486.486 0 11.971 0 .486.486 0 01-.971 0zM8.12 38.502a.486.486 0 11.971 0 .486.486 0 01-.971 0zm1.619 0a.486.486 0 11.971 0 .486.486 0 01-.971 0zm1.619 0a.486.486 0 11.972 0 .486.486 0 01-.972 0zm1.619 0a.486.486 0 11.972 0 .486.486 0 01-.972 0zm1.62 0a.486.486 0 11.971 0 .486.486 0 01-.971 0zm1.619 0a.486.486 0 11.971 0 .486.486 0 01-.971 0zm1.619 0a.486.486 0 11.971 0 .486.486 0 01-.971 0zm1.619 0a.486.486 0 11.971 0 .486.486 0 01-.971 0zm1.619 0a.486.486 0 11.971 0 .486.486 0 01-.971 0zm1.619 0a.486.486 0 11.972 0 .486.486 0 01-.972 0zm1.619 0a.486.486 0 11.972 0 .486.486 0 01-.972 0zm1.619 0a.486.486 0 11.972 0 .486.486 0 01-.971 0zm1.62 0a.486.486 0 11.971 0 .486.486 0 01-.971 0zm1.619 0a.486.486 0 11.971 0 .486.486 0 01-.971 0zm1.619 0a.486.486 0 11.971 0 .486.486 0 01-.971 0zm1.619 0a.486.486 0 11.972 0 .486.486 0 01-.972 0zm1.619 0a.486.486 0 11.972 0 .486.486 0 01-.972 0zm1.619 0a.486.486 0 11.972 0 .486.486 0 01-.971 0zM8.12 9.474a.486.486 0 11.971 0 .486.486 0 01-.971 0zm1.619 0a.486.486 0 11.971 0 .486.486 0 01-.971 0zm1.619 0a.486.486 0 11.972 0 .486.486 0 01-.972 0zm1.619 0a.486.486 0 11.972 0 .486.486 0 01-.972 0zm1.62 0a.486.486 0 11.97 0 .486.486 0 01-.97 0zm1.619 0a.486.486 0 11.971 0 .486.486 0 01-.971 0zm1.619 0a.486.486 0 11.971 0 .486.486 0 01-.971 0zm1.619 0a.486.486 0 11.971 0 .486.486 0 01-.971 0zm1.619 0a.486.486 0 11.971 0 .486.486 0 01-.971 0zm1.619 0a.486.486 0 11.972 0 .486.486 0 01-.972 0zm1.619 0a.486.486 0 11.972 0 .486.486 0 01-.972 0zm1.619 0a.486.486 0 11.972 0 .486.486 0 01-.971 0zm1.62 0a.486.486 0 11.971 0 .486.486 0 01-.971 0zm1.619 0a.486.486 0 11.971 0 .486.486 0 01-.971 0zm1.619 0a.486.486 0 11.971 0 .486.486 0 01-.971 0zm1.619 0a.486.486 0 11.972 0 .486.486 0 01-.972 0zm1.619 0a.486.486 0 11.972 0 .486.486 0 01-.972 0zm1.619 0a.486.486 0 11.972 0 .486.486 0 01-.971 0z" fill="#9AA0A6"/><g clip-path="url(#clip0_2626_233354)" fill="#3C4043"><path d="M19.504 29.307a5.31 5.31 0 01-5.304-5.304 5.31 5.31 0 015.304-5.304c1.35 0 2.579.478 3.55 1.382l.078.074-.075.076L21.5 21.79l-.074-.073a2.729 2.729 0 00-1.922-.751c-1.642 0-2.979 1.362-2.979 3.038 0 1.674 1.337 3.037 2.979 3.037 1.388 0 2.428-.743 2.686-1.905H19.4v-2.212h5.075l.015.085c.066.366.1.74.1 1.113 0 3.054-2.092 5.186-5.086 5.186zm6.695 0v-1.985l.05-.05c2.022-2.006 3.25-3.243 3.647-3.68.342-.37.577-.678.7-.915.12-.229.178-.485.178-.784a.954.954 0 00-.328-.74c-.22-.206-.513-.307-.893-.307-.374 0-.663.1-.883.306a1.736 1.736 0 00-.493.804l-.054.182-2.048-.85.04-.146c.112-.4.323-.793.626-1.168a3.432 3.432 0 011.183-.92c.478-.236 1.036-.355 1.657-.355.687 0 1.302.137 1.822.406.529.275.942.652 1.228 1.118.29.479.437 1.01.437 1.58 0 1.125-.55 2.236-1.638 3.304a358.79 358.79 0 00-2.191 2.178l3.961-.006v2.028h-7z"/></g><defs><clipPath id="clip0_2626_233354"><path fill="#fff" transform="translate(14.2 18.7)" d="M0 0h19v10.608H0z"/></clipPath></defs></svg>