<svg width="48" height="48" viewBox="0 0 48 48" fill="none" xmlns="http://www.w3.org/2000/svg"><g clip-path="url(#clip0_2685_128158)"><path d="M7.106 43.943a3.077 3.077 0 01-3.074-3.074V7.106a3.077 3.077 0 013.074-3.073h33.763a3.077 3.077 0 013.073 3.073V40.87a3.077 3.077 0 01-3.073 3.074H7.106z" fill="#fff"/><path d="M40.87 4.753a2.356 2.356 0 012.352 2.353V40.87a2.356 2.356 0 01-2.353 2.354H7.106a2.356 2.356 0 01-2.353-2.354V7.106a2.356 2.356 0 012.353-2.353h33.763zm0-1.44H7.105a3.793 3.793 0 00-3.793 3.793V40.87a3.793 3.793 0 003.793 3.794h33.763a3.793 3.793 0 003.793-3.794V7.106a3.793 3.793 0 00-3.793-3.793z" fill="#3C4043"/><path d="M8.121 32.083a.486.486 0 11.971 0 .486.486 0 01-.97 0zm1.619 0a.486.486 0 11.972 0 .486.486 0 01-.972 0zm1.62 0a.486.486 0 11.97 0 .486.486 0 01-.97 0zm1.619 0a.486.486 0 11.97 0 .486.486 0 01-.97 0zm1.619 0a.486.486 0 11.971 0 .486.486 0 01-.971 0zm1.619 0a.486.486 0 11.971 0 .486.486 0 01-.971 0zm1.619 0a.486.486 0 11.971 0 .486.486 0 01-.971 0zm1.619 0a.486.486 0 11.971 0 .486.486 0 01-.97 0zm1.619 0a.486.486 0 11.972 0 .486.486 0 01-.972 0zm1.619 0a.486.486 0 11.972 0 .486.486 0 01-.972 0zm1.62 0a.486.486 0 11.97 0 .486.486 0 01-.97 0zm1.619 0a.486.486 0 11.971 0 .486.486 0 01-.971 0zm1.618 0a.486.486 0 11.972 0 .486.486 0 01-.971 0zm1.62 0a.486.486 0 11.971 0 .486.486 0 01-.971 0zm1.62 0a.486.486 0 11.97 0 .486.486 0 01-.97 0zm1.618 0a.486.486 0 11.972 0 .486.486 0 01-.972 0zm1.619 0a.486.486 0 11.972 0 .486.486 0 01-.972 0zm1.62 0a.486.486 0 11.97 0 .486.486 0 01-.97 0zm-27.526 1.62a.486.486 0 11.971 0 .486.486 0 01-.97 0zm1.619 0a.486.486 0 11.972 0 .486.486 0 01-.972 0zm1.62 0a.486.486 0 11.97 0 .486.486 0 01-.97 0zm1.619 0a.486.486 0 11.971 0 .486.486 0 01-.971 0zm1.619 0a.486.486 0 11.971 0 .486.486 0 01-.971 0zm1.619 0a.486.486 0 11.971 0 .486.486 0 01-.971 0zm1.619 0a.486.486 0 11.971 0 .486.486 0 01-.971 0zm1.619 0a.486.486 0 11.971 0 .486.486 0 01-.97 0zm1.619 0a.486.486 0 11.972 0 .486.486 0 01-.972 0zm1.619 0a.486.486 0 11.972 0 .486.486 0 01-.972 0zm1.62 0a.486.486 0 11.97 0 .486.486 0 01-.97 0zm1.619 0a.486.486 0 11.971 0 .486.486 0 01-.971 0zm1.618 0a.486.486 0 11.972 0 .486.486 0 01-.971 0zm1.62 0a.486.486 0 11.971 0 .486.486 0 01-.971 0zm1.62 0a.486.486 0 11.97 0 .486.486 0 01-.97 0zm1.618 0a.486.486 0 11.972 0 .486.486 0 01-.972 0zm1.619 0a.486.486 0 11.972 0 .486.486 0 01-.972 0zm1.62 0a.486.486 0 11.97 0 .486.486 0 01-.97 0zM8.121 35.322a.486.486 0 11.972 0 .486.486 0 01-.972 0zm1.619 0a.486.486 0 11.972 0 .486.486 0 01-.972 0zm1.62 0a.486.486 0 11.97 0 .486.486 0 01-.97 0zm1.619 0a.486.486 0 11.971 0 .486.486 0 01-.971 0zm1.619 0a.486.486 0 11.971 0 .486.486 0 01-.971 0zm1.619 0a.486.486 0 11.971 0 .486.486 0 01-.971 0zm1.619 0a.486.486 0 11.971 0 .486.486 0 01-.971 0zm1.619 0a.486.486 0 11.972 0 .486.486 0 01-.972 0zm1.619 0a.486.486 0 11.972 0 .486.486 0 01-.972 0zm1.619 0a.486.486 0 11.972 0 .486.486 0 01-.972 0zm1.62 0a.486.486 0 11.971 0 .486.486 0 01-.971 0zm1.619 0a.486.486 0 11.971 0 .486.486 0 01-.971 0zm1.618 0a.486.486 0 11.972 0 .486.486 0 01-.971 0zm1.62 0a.486.486 0 11.971 0 .486.486 0 01-.971 0zm1.62 0a.486.486 0 11.97 0 .486.486 0 01-.97 0zm1.618 0a.486.486 0 11.972 0 .486.486 0 01-.972 0zm1.619 0a.486.486 0 11.972 0 .486.486 0 01-.972 0zm1.62 0a.486.486 0 11.971 0 .486.486 0 01-.971 0zM8.121 36.94a.486.486 0 11.971 0 .486.486 0 01-.97 0zm1.619 0a.486.486 0 11.972 0 .486.486 0 01-.972 0zm1.62 0a.486.486 0 11.97 0 .486.486 0 01-.97 0zm1.619 0a.486.486 0 11.97 0 .486.486 0 01-.97 0zm1.619 0a.486.486 0 11.971 0 .486.486 0 01-.971 0zm1.619 0a.486.486 0 11.971 0 .486.486 0 01-.971 0zm1.619 0a.486.486 0 11.971 0 .486.486 0 01-.971 0zm1.619 0a.486.486 0 11.971 0 .486.486 0 01-.97 0zm1.619 0a.486.486 0 11.972 0 .486.486 0 01-.972 0zm1.619 0a.486.486 0 11.972 0 .486.486 0 01-.972 0zm1.62 0a.486.486 0 11.97 0 .486.486 0 01-.97 0zm1.619 0a.486.486 0 11.971 0 .486.486 0 01-.971 0zm1.618 0a.486.486 0 11.972 0 .486.486 0 01-.971 0zm1.62 0a.486.486 0 11.971 0 .486.486 0 01-.971 0zm1.62 0a.486.486 0 11.97 0 .486.486 0 01-.97 0zm1.618 0a.486.486 0 11.972 0 .486.486 0 01-.972 0zm1.619 0a.486.486 0 11.972 0 .486.486 0 01-.972 0zm1.62 0a.486.486 0 11.97 0 .486.486 0 01-.97 0zM8.121 17.511a.486.486 0 11.971 0 .486.486 0 01-.97 0zm1.619 0a.486.486 0 11.972 0 .486.486 0 01-.972 0zM8.121 19.13a.486.486 0 11.972 0 .486.486 0 01-.972 0zm1.619 0a.486.486 0 11.972 0 .486.486 0 01-.972 0zm-1.619 1.62a.486.486 0 11.971 0 .486.486 0 01-.97 0zm1.619 0a.486.486 0 11.972 0 .486.486 0 01-.972 0zm-1.619 1.619a.486.486 0 11.972 0 .486.486 0 01-.972 0zm1.619 0a.486.486 0 11.972 0 .486.486 0 01-.972 0zm-1.619 1.619a.486.486 0 11.971 0 .486.486 0 01-.97 0zm1.619 0a.486.486 0 11.972 0 .486.486 0 01-.972 0zm-1.619 1.619a.486.486 0 11.971 0 .486.486 0 01-.97 0zm1.619 0a.486.486 0 11.972 0 .486.486 0 01-.972 0zm-1.619 1.619a.486.486 0 11.972 0 .486.486 0 01-.972 0zm1.619 0a.486.486 0 11.972 0 .486.486 0 01-.972 0zm-1.619 1.619a.486.486 0 11.971 0 .486.486 0 01-.97 0zm1.619 0a.486.486 0 11.972 0 .486.486 0 01-.972 0zm-1.619 1.619a.486.486 0 11.972 0 .486.486 0 01-.972 0zm1.619 0a.486.486 0 11.972 0 .486.486 0 01-.972 0zm27.523-16.191a.486.486 0 11.971 0 .486.486 0 01-.971 0zm1.619 0a.486.486 0 11.971 0 .486.486 0 01-.971 0zm-1.619 1.619a.486.486 0 11.971 0 .486.486 0 01-.971 0zm1.619 0a.486.486 0 11.971 0 .486.486 0 01-.971 0zm-1.617 16.191a.486.486 0 11.971 0 .486.486 0 01-.971 0zm1.619 0a.486.486 0 11.971 0 .486.486 0 01-.971 0zm-1.619 1.62a.486.486 0 11.971 0 .486.486 0 01-.971 0zm1.619 0a.486.486 0 11.971 0 .486.486 0 01-.971 0zm-1.619 1.619a.486.486 0 11.971 0 .486.486 0 01-.971 0zm1.619 0a.486.486 0 11.971 0 .486.486 0 01-.971 0zm-1.619 1.618a.486.486 0 11.971 0 .486.486 0 01-.971 0zm1.619 0a.486.486 0 11.971 0 .486.486 0 01-.971 0zm-1.619-19.429a.486.486 0 11.971 0 .486.486 0 01-.971 0zm1.619 0a.486.486 0 11.971 0 .486.486 0 01-.971 0zm-1.619 1.619a.486.486 0 11.971 0 .486.486 0 01-.971 0zm1.619 0a.486.486 0 11.971 0 .486.486 0 01-.971 0zm-1.619 1.62a.486.486 0 11.971 0 .486.486 0 01-.971 0zm1.619 0a.486.486 0 11.971 0 .486.486 0 01-.971 0zm-1.619 1.619a.486.486 0 11.971 0 .486.486 0 01-.971 0zm1.619 0a.486.486 0 11.971 0 .486.486 0 01-.971 0zm-1.619 1.619a.486.486 0 11.971 0 .486.486 0 01-.971 0zm1.619 0a.486.486 0 11.971 0 .486.486 0 01-.971 0zm-1.619 1.619a.486.486 0 11.971 0 .486.486 0 01-.971 0zm1.619 0a.486.486 0 11.971 0 .486.486 0 01-.971 0zm-1.619 1.619a.486.486 0 11.971 0 .486.486 0 01-.971 0zm1.619 0a.486.486 0 11.971 0 .486.486 0 01-.971 0zm-1.619 1.619a.486.486 0 11.971 0 .486.486 0 01-.971 0zm1.619 0a.486.486 0 11.971 0 .486.486 0 01-.971 0zm-1.619 1.619a.486.486 0 11.971 0 .486.486 0 01-.971 0zm1.619 0a.486.486 0 11.971 0 .486.486 0 01-.971 0zm-1.621-19.429a.486.486 0 11.971 0 .486.486 0 01-.971 0zm1.619 0a.486.486 0 11.971 0 .486.486 0 01-.971 0zm-1.619 1.619a.486.486 0 11.971 0 .486.486 0 01-.971 0zm1.619 0a.486.486 0 11.971 0 .486.486 0 01-.971 0zM8.12 11.035a.486.486 0 11.97 0 .486.486 0 01-.97 0zm1.618 0a.486.486 0 11.972 0 .486.486 0 01-.972 0zm1.619 0a.486.486 0 11.972 0 .486.486 0 01-.972 0zm1.62 0a.486.486 0 11.971 0 .486.486 0 01-.971 0zm1.619 0a.486.486 0 11.971 0 .486.486 0 01-.971 0zm1.619 0a.486.486 0 11.971 0 .486.486 0 01-.971 0zm1.619 0a.486.486 0 11.971 0 .486.486 0 01-.971 0zm1.619 0a.486.486 0 11.972 0 .486.486 0 01-.972 0zm1.619 0a.486.486 0 11.972 0 .486.486 0 01-.972 0zm1.619 0a.486.486 0 11.972 0 .486.486 0 01-.972 0zm1.619 0a.486.486 0 11.972 0 .486.486 0 01-.971 0zm1.62 0a.486.486 0 11.971 0 .486.486 0 01-.971 0zm1.619 0a.486.486 0 11.971 0 .486.486 0 01-.971 0zm1.619 0a.486.486 0 11.971 0 .486.486 0 01-.971 0zm1.619 0a.486.486 0 11.972 0 .486.486 0 01-.972 0zm1.619 0a.486.486 0 11.972 0 .486.486 0 01-.972 0zm1.619 0a.486.486 0 11.972 0 .486.486 0 01-.972 0zm1.62 0a.486.486 0 11.971 0 .486.486 0 01-.971 0zM8.12 12.654a.486.486 0 11.97 0 .486.486 0 01-.97 0zm1.618 0a.486.486 0 11.972 0 .486.486 0 01-.972 0zm1.619 0a.486.486 0 11.972 0 .486.486 0 01-.972 0zm1.62 0a.486.486 0 11.97 0 .486.486 0 01-.97 0zm1.619 0a.486.486 0 11.971 0 .486.486 0 01-.971 0zm1.619 0a.486.486 0 11.971 0 .486.486 0 01-.971 0zm1.619 0a.486.486 0 11.971 0 .486.486 0 01-.971 0zm1.619 0a.486.486 0 11.972 0 .486.486 0 01-.972 0zm1.619 0a.486.486 0 11.972 0 .486.486 0 01-.972 0zm1.619 0a.486.486 0 11.972 0 .486.486 0 01-.972 0zm1.619 0a.486.486 0 11.972 0 .486.486 0 01-.971 0zm1.62 0a.486.486 0 11.971 0 .486.486 0 01-.971 0zm1.619 0a.486.486 0 11.971 0 .486.486 0 01-.971 0zm1.619 0a.486.486 0 11.971 0 .486.486 0 01-.971 0zm1.619 0a.486.486 0 11.971 0 .486.486 0 01-.97 0zm1.619 0a.486.486 0 11.972 0 .486.486 0 01-.972 0zm1.619 0a.486.486 0 11.972 0 .486.486 0 01-.972 0zm1.62 0a.486.486 0 11.97 0 .486.486 0 01-.97 0zM8.12 14.273a.486.486 0 11.97 0 .486.486 0 01-.97 0zm1.618 0a.486.486 0 11.972 0 .486.486 0 01-.972 0zm1.619 0a.486.486 0 11.972 0 .486.486 0 01-.972 0zm1.62 0a.486.486 0 11.971 0 .486.486 0 01-.971 0zm1.619 0a.486.486 0 11.971 0 .486.486 0 01-.971 0zm1.619 0a.486.486 0 11.971 0 .486.486 0 01-.971 0zm1.619 0a.486.486 0 11.971 0 .486.486 0 01-.971 0zm1.619 0a.486.486 0 11.972 0 .486.486 0 01-.972 0zm1.619 0a.486.486 0 11.972 0 .486.486 0 01-.972 0zm1.619 0a.486.486 0 11.972 0 .486.486 0 01-.972 0zm1.619 0a.486.486 0 11.972 0 .486.486 0 01-.971 0zm1.62 0a.486.486 0 11.971 0 .486.486 0 01-.971 0zm1.619 0a.486.486 0 11.971 0 .486.486 0 01-.971 0zm1.619 0a.486.486 0 11.971 0 .486.486 0 01-.971 0zm1.619 0a.486.486 0 11.972 0 .486.486 0 01-.972 0zm1.619 0a.486.486 0 11.972 0 .486.486 0 01-.972 0zm1.619 0a.486.486 0 11.972 0 .486.486 0 01-.972 0zm1.62 0a.486.486 0 11.971 0 .486.486 0 01-.971 0zM8.12 15.892a.486.486 0 11.97 0 .486.486 0 01-.97 0zm1.618 0a.486.486 0 11.972 0 .486.486 0 01-.972 0zm1.619 0a.486.486 0 11.972 0 .486.486 0 01-.972 0zm1.62 0a.486.486 0 11.971 0 .486.486 0 01-.971 0zm1.619 0a.486.486 0 11.971 0 .486.486 0 01-.971 0zm1.619 0a.486.486 0 11.971 0 .486.486 0 01-.971 0zm1.619 0a.486.486 0 11.971 0 .486.486 0 01-.971 0zm1.619 0a.486.486 0 11.972 0 .486.486 0 01-.972 0zm1.619 0a.486.486 0 11.972 0 .486.486 0 01-.972 0zm1.619 0a.486.486 0 11.972 0 .486.486 0 01-.972 0zm1.619 0a.486.486 0 11.972 0 .486.486 0 01-.971 0zm1.62 0a.486.486 0 11.971 0 .486.486 0 01-.971 0zm1.619 0a.486.486 0 11.971 0 .486.486 0 01-.971 0zm1.619 0a.486.486 0 11.971 0 .486.486 0 01-.971 0zm1.619 0a.486.486 0 11.972 0 .486.486 0 01-.972 0zm1.619 0a.486.486 0 11.972 0 .486.486 0 01-.972 0zm1.619 0a.486.486 0 11.972 0 .486.486 0 01-.972 0zm1.62 0a.486.486 0 11.971 0 .486.486 0 01-.971 0zm1.618 22.61a.486.486 0 11.971 0 .486.486 0 01-.971 0zm1.619 0a.486.486 0 11.971 0 .486.486 0 01-.971 0zM37.263 9.474a.486.486 0 11.971 0 .486.486 0 01-.971 0zm1.619 0a.486.486 0 11.971 0 .486.486 0 01-.971 0zM8.12 38.502a.486.486 0 11.97 0 .486.486 0 01-.97 0zm1.618 0a.486.486 0 11.972 0 .486.486 0 01-.972 0zm1.619 0a.486.486 0 11.972 0 .486.486 0 01-.972 0zm1.62 0a.486.486 0 11.971 0 .486.486 0 01-.971 0zm1.619 0a.486.486 0 11.971 0 .486.486 0 01-.971 0zm1.619 0a.486.486 0 11.971 0 .486.486 0 01-.971 0zm1.619 0a.486.486 0 11.971 0 .486.486 0 01-.971 0zm1.619 0a.486.486 0 11.972 0 .486.486 0 01-.972 0zm1.619 0a.486.486 0 11.972 0 .486.486 0 01-.972 0zm1.619 0a.486.486 0 11.972 0 .486.486 0 01-.972 0zm1.619 0a.486.486 0 11.972 0 .486.486 0 01-.971 0zm1.62 0a.486.486 0 11.971 0 .486.486 0 01-.971 0zm1.619 0a.486.486 0 11.971 0 .486.486 0 01-.971 0zm1.619 0a.486.486 0 11.971 0 .486.486 0 01-.971 0zm1.619 0a.486.486 0 11.972 0 .486.486 0 01-.972 0zm1.619 0a.486.486 0 11.972 0 .486.486 0 01-.972 0zm1.619 0a.486.486 0 11.972 0 .486.486 0 01-.972 0zm1.62 0a.486.486 0 11.971 0 .486.486 0 01-.971 0zM8.12 9.474a.486.486 0 11.97 0 .486.486 0 01-.97 0zm1.618 0a.486.486 0 11.972 0 .486.486 0 01-.972 0zm1.619 0a.486.486 0 11.972 0 .486.486 0 01-.972 0zm1.62 0a.486.486 0 11.97 0 .486.486 0 01-.97 0zm1.619 0a.486.486 0 11.971 0 .486.486 0 01-.971 0zm1.619 0a.486.486 0 11.971 0 .486.486 0 01-.971 0zm1.619 0a.486.486 0 11.971 0 .486.486 0 01-.971 0zm1.619 0a.486.486 0 11.972 0 .486.486 0 01-.972 0zm1.619 0a.486.486 0 11.972 0 .486.486 0 01-.972 0zm1.619 0a.486.486 0 11.972 0 .486.486 0 01-.972 0zm1.619 0a.486.486 0 11.972 0 .486.486 0 01-.971 0zm1.62 0a.486.486 0 11.971 0 .486.486 0 01-.971 0zm1.619 0a.486.486 0 11.971 0 .486.486 0 01-.971 0zm1.619 0a.486.486 0 11.971 0 .486.486 0 01-.971 0zm1.619 0a.486.486 0 11.971 0 .486.486 0 01-.97 0zm1.619 0a.486.486 0 11.972 0 .486.486 0 01-.972 0zm1.619 0a.486.486 0 11.972 0 .486.486 0 01-.972 0zm1.62 0a.486.486 0 11.971 0 .486.486 0 01-.971 0z" fill="#9AA0A6"/><path d="M24.078 29.33a5.349 5.349 0 01-5.343-5.342 5.349 5.349 0 015.343-5.343c1.361 0 2.598.48 3.576 1.392l.08.074-.076.077-1.569 1.57-.075-.074a2.748 2.748 0 00-1.936-.757c-1.654 0-3 1.373-3 3.06s1.346 3.06 3 3.06c1.399 0 2.447-.748 2.707-1.919h-2.811V22.9h5.112l.016.085c.066.369.1.746.1 1.122 0 3.076-2.107 5.224-5.124 5.224z" fill="#3C4043"/></g><defs><clipPath id="clip0_2685_128158"><path fill="#fff" d="M0 0h48v48H0z"/></clipPath></defs></svg>