<svg width="32" height="32" viewBox="0 0 32 32" fill="none" xmlns="http://www.w3.org/2000/svg"><path d="M4.814 4.814L0 6.42l4.814 2.14 1.605 4.814L8.56 8.56l4.814-2.14L8.56 4.814 6.419 0 4.814 4.814zm10.699 8.788l-3.095 1.032 3.095 1.376 1.031 3.095 1.376-3.095 3.095-1.376-3.095-1.032-1.376-3.094-1.031 3.095z" fill="#3C4043"/><path fill-rule="evenodd" clip-rule="evenodd" d="M15 0h11.806C29.674 0 32 2.388 32 5.333V32h-2.833V5.333c0-1.339-1.057-2.424-2.361-2.424H15V0zM7.642 16.716V32H4.776V16.716h2.866z" fill="#3C4043"/></svg>