<svg width="32" height="32" viewBox="0 0 32 32" fill="none" xmlns="http://www.w3.org/2000/svg"><path fill-rule="evenodd" clip-rule="evenodd" d="M0 4.569A4.569 4.569 0 014.569 0H27.43A4.569 4.569 0 0132 4.569V32h-2.899V4.569a1.67 1.67 0 00-1.67-1.67H4.57a1.67 1.67 0 00-1.67 1.67V32H0V4.569z" fill="#3C4043"/><mask id="a" fill="#fff"><path fill-rule="evenodd" clip-rule="evenodd" d="M.54 9.634h30.92v10.004H.54V9.634zm3.866 4.988a2.76 2.76 0 012.76-2.76h6.465a2.76 2.76 0 110 5.52H7.165a2.76 2.76 0 01-2.76-2.76zm15.959 2.948a2.855 2.855 0 100-5.71 2.855 2.855 0 000 5.71z"/></mask><path fill-rule="evenodd" clip-rule="evenodd" d="M.54 9.634h30.92v10.004H.54V9.634zm3.866 4.988a2.76 2.76 0 012.76-2.76h6.465a2.76 2.76 0 110 5.52H7.165a2.76 2.76 0 01-2.76-2.76zm15.959 2.948a2.855 2.855 0 100-5.71 2.855 2.855 0 000 5.71z" fill="#3C4043"/><path d="M31.46 9.634h3v-3h-3v3zm-30.92 0v-3h-3v3h3zm30.92 10.004v3h3v-3h-3zm-30.92 0h-3v3h3v-3zm6.625-7.776v3-3zm-2.76 2.76h-3 3zm9.226-2.76v-3 3zm0 5.52v3-3zm-6.466 0v-3 3zm13.2.188v-3 3zm0-5.71v3-3zM31.46 6.634H.54v6h30.92v-6zm3 13.004V9.634h-6v10.004h6zm-33.92 3h30.92v-6H.54v6zm-3-13.004v10.004h6V9.634h-6zm9.625-.772a5.76 5.76 0 00-5.76 5.76h6a.24.24 0 01-.24.24v-6zm6.466 0H7.165v6h6.466v-6zm5.76 5.76a5.76 5.76 0 00-5.76-5.76v6a.24.24 0 01-.24-.24h6zm-5.76 5.76a5.76 5.76 0 005.76-5.76h-6a.24.24 0 01.24-.24v6zm-6.466 0h6.466v-6H7.165v6zm-5.76-5.76a5.76 5.76 0 005.76 5.76v-6a.24.24 0 01.24.24h-6zm18.815.093c0-.08.065-.145.145-.145v6a5.855 5.855 0 005.855-5.855h-6zm.145.145a.145.145 0 01-.145-.145h6a5.855 5.855 0 00-5.855-5.855v6zm.145-.145c0 .08-.065.145-.145.145v-6a5.855 5.855 0 00-5.855 5.855h6zm-.145-.145c.08 0 .145.065.145.145h-6a5.855 5.855 0 005.855 5.855v-6z" fill="#3C4043" mask="url(#a)"/></svg>