<svg width="32" height="32" viewBox="0 0 32 32" fill="none" xmlns="http://www.w3.org/2000/svg"><rect width="32" height="32" rx="4" fill="#3C4043"/><path d="M11.364 17.043v-2.14h5.49c.082.363.146.702.146 1.18 0 3.283-2.246 5.617-5.63 5.617-3.243 0-5.87-2.576-5.87-5.75s2.627-5.75 5.864-5.75c1.584 0 2.91.57 3.924 1.5l-1.666 1.588c-.422-.391-1.155-.857-2.258-.857a3.529 3.529 0 00-3.524 3.52 3.529 3.529 0 003.524 3.518c2.246 0 3.073-1.524 3.226-2.426h-3.226zm7.013 2.253l2.048-2.048a89.025 89.025 0 001.952-1.968c.384-.427.646-.773.784-1.04a1.96 1.96 0 00.224-.944c0-.363-.144-.672-.432-.928-.277-.267-.645-.4-1.104-.4-.437 0-.8.128-1.088.384-.277.256-.47.576-.576.96l-1.904-.784c.118-.416.33-.816.64-1.2.32-.395.73-.715 1.232-.96S21.231 10 21.881 10c.726 0 1.36.144 1.904.432a3.07 3.07 0 011.264 1.152c.299.48.448 1.019.448 1.616 0 1.184-.576 2.341-1.728 3.472l-.64.64c-.234.235-.48.475-.736.72l-1.232 1.232.064.096h4.432v1.84h-7.28v-1.904z" fill="#fff"/></svg>