<svg width="48" height="48" viewBox="0 0 48 48" fill="none" xmlns="http://www.w3.org/2000/svg"><g clip-path="url(#clip0_2685_128098)"><path d="M5 10h45v14H5V10z" fill="#3C4043"/><path d="M50 4H10a5 5 0 00-5 5v43" stroke="#3C4043" stroke-width="2"/><mask id="a" fill="#fff"><path fill-rule="evenodd" clip-rule="evenodd" d="M15 20a3 3 0 110-6h10a3 3 0 110 6H15z"/></mask><path d="M11 17a4 4 0 004 4v-2a2 2 0 01-2-2h-2zm4-4a4 4 0 00-4 4h2a2 2 0 012-2v-2zm0 2h10v-2H15v2zm14 2a4 4 0 00-4-4v2a2 2 0 012 2h2zm-4 4a4 4 0 004-4h-2a2 2 0 01-2 2v2zm0-2H15v2h10v-2z" fill="#fff" mask="url(#a)"/><circle cx="15" cy="17" r="1" fill="#fff"/><circle cx="25" cy="17" r="1" fill="#fff"/><circle cx="42" cy="17" r="2.5" fill="#3C4043" stroke="#fff"/></g><defs><clipPath id="clip0_2685_128098"><path fill="#fff" d="M0 0h48v48H0z"/></clipPath></defs></svg>